<?xml version="1.0" encoding="utf-8"?>
<!-- Designed by Vexels.com - 2018 All Rights Reserved - https://vexels.com/terms-and-conditions/  -->
<svg version="1.1" id="Layer_1" xmlns="http://www.w3.org/2000/svg" xmlns:xlink="http://www.w3.org/1999/xlink" x="0px" y="0px"
	 viewBox="0 0 1200 1200" enable-background="new 0 0 1200 1200" xml:space="preserve">
<g>
	<path fill="#2D2D2D" d="M600,50C296.73,50,50.001,296.729,50.001,599.999C50.001,903.271,296.73,1150,600,1150
		s549.999-246.729,549.999-550.001C1149.999,296.729,903.27,50,600,50z M600,1117.716c-285.468,0-517.715-232.247-517.715-517.717
		S314.532,82.284,600,82.284s517.715,232.245,517.715,517.715S885.468,1117.716,600,1117.716z"/>
	<path fill="#2D2D2D" d="M699.015,754.329c-4.655-7.141-11.903-12.05-20.411-13.822c-8.951-1.865-18.581,0.027-26.412,5.191
		l-0.618,0.429c-11.042,8.038-42.805,31.445-59.44,46.651c-41.704-27.807-80.612-69.133-110.382-117.433
		c-30.435-49.344-49.771-102.813-55.66-153.124c7.91,2.88,16.019,3.314,23.245-1.43l57.38-37.712
		c15.877-10.39,20.726-31.173,10.792-46.353L405.307,265.952c-4.647-7.119-11.892-12.014-20.4-13.784
		c-8.96-1.866-18.576,0.02-26.393,5.167l-49.954,35.968l-21.004,17.8c-43.848,119.804-13.963,286.846,77.993,435.939
		c88.635,143.663,220.279,244.56,343.805,263.584c1.353,0.284,2.937,0.46,4.798,0.46c9.534,0,26.398-4.605,57.008-22.867
		c15.431-9.208,26.144-23.923,30.169-41.438c4.026-17.515,0.81-35.435-9.056-50.458L699.015,754.329z M769.867,939.553
		c-2.035,8.851-7.45,16.29-15.248,20.942c-16.902,10.086-33.703,16.872-39.602,18.338
		c-114.638-17.318-238.004-112.611-321.99-248.74C307.602,591.591,278.33,438.169,315.892,327.81l60.555-43.621
		c0.91-0.533,1.661-0.481,1.952-0.399l112.011,170.376c0.014,0.191-0.184,1.124-1.397,1.918l-53.45,35.128
		c-2.519-1.234-6.853-3.829-12.944-8.72c-5.697-4.575-13.612-5.437-20.159-2.191c-6.547,3.243-10.656,10.054-10.47,17.35
		c1.597,62.989,23.717,132.114,62.282,194.639c34.991,56.771,79.919,103.019,129.931,133.741c8.336,5.117,19.077,3.047,24.982-4.803
		c4.553-5.962,35.099-29.844,60.971-48.696c1.05-0.61,1.855-0.459,1.843-0.528l93.29,142.042
		C770.275,921.639,771.9,930.698,769.867,939.553z"/>
	<path fill="#2D2D2D" d="M764.54,656.591c0.757,0.106,1.507,0.156,2.249,0.156c7.926,0,14.842-5.842,15.967-13.915
		c8.697-62.368-2.467-121.729-32.284-171.668s-76.779-87.927-135.806-109.857c-8.355-3.104-17.647,1.152-20.753,9.51
		c-3.105,8.356,1.152,17.647,9.51,20.753c52.06,19.34,93.323,52.588,119.33,96.144c26.007,43.557,35.698,95.654,28.028,150.66
		C749.55,647.204,755.711,655.36,764.54,656.591z"/>
	<path fill="#2D2D2D" d="M599.625,275.122c-8.358-3.104-17.649,1.152-20.753,9.51c-3.105,8.356,1.152,17.647,9.51,20.753
		c81.561,30.303,146.256,82.466,187.089,150.854c40.831,68.386,56.062,150.085,44.045,236.262
		c-1.231,8.829,4.929,16.985,13.759,18.217c0.757,0.106,1.507,0.156,2.25,0.156c7.926,0,14.842-5.84,15.967-13.915
		c13.041-93.539-3.66-182.501-48.302-257.27C758.545,364.92,688.154,308.013,599.625,275.122z"/>
</g>
</svg>
